<svg width="155" height="122" viewBox="0 0 155 122" fill="none" xmlns="http://www.w3.org/2000/svg">
<path d="M140.168 121.7V100.689H154.366V104.651H144.55V117.738H154.576V121.7H140.168ZM142.269 112.905V109.063H152.925V112.905H142.269Z" fill="black"/>
<path d="M113.702 121.7V100.689H117.724L129.34 116.387H128.499C128.419 115.767 128.349 115.166 128.289 114.586C128.229 113.986 128.169 113.385 128.109 112.785C128.069 112.165 128.029 111.535 127.989 110.894C127.969 110.234 127.949 109.543 127.929 108.823C127.909 108.083 127.899 107.282 127.899 106.422V100.689H132.311V121.7H128.229L116.373 105.852L117.514 105.882C117.614 106.922 117.694 107.813 117.754 108.553C117.834 109.273 117.894 109.904 117.934 110.444C117.974 110.984 118.004 111.454 118.024 111.855C118.064 112.255 118.084 112.635 118.084 112.995C118.104 113.355 118.114 113.736 118.114 114.136V121.7H113.702Z" fill="black"/>
<path d="M87.9095 121.7L96.1338 100.689H100.156L108.35 121.7H103.728L99.4956 110.384C99.3755 110.064 99.2254 109.654 99.0453 109.153C98.8853 108.653 98.7152 108.123 98.5351 107.562C98.355 107.002 98.1849 106.472 98.0248 105.972C97.8647 105.451 97.7447 105.021 97.6646 104.681L98.475 104.651C98.355 105.111 98.2149 105.591 98.0548 106.092C97.9147 106.572 97.7647 107.072 97.6046 107.592C97.4445 108.093 97.2744 108.583 97.0943 109.063C96.9142 109.543 96.7441 110.014 96.5841 110.474L92.3518 121.7H87.9095ZM91.7215 117.288L93.1923 113.656H102.827L104.328 117.288H91.7215Z" fill="black"/>
<path d="M75.5241 121.7V111.224L75.7342 112.695L67.2398 100.689H72.4325L78.9158 109.994L76.8748 109.904L82.7278 100.689H87.7404L79.6062 113.025L80.0564 110.984V121.7H75.5241Z" fill="black"/>
<path d="M52.9162 122C52.1758 122 51.4754 121.91 50.8151 121.73C50.1748 121.55 49.5745 121.3 49.0142 120.979C48.4739 120.659 47.9836 120.269 47.5434 119.809C47.1032 119.329 46.733 118.798 46.4328 118.218L49.0442 115.487C49.3844 115.947 49.6945 116.337 49.9747 116.657C50.2748 116.957 50.555 117.197 50.8151 117.378C51.0952 117.558 51.3754 117.688 51.6555 117.768C51.9357 117.828 52.2358 117.858 52.556 117.858C53.1163 117.858 53.6066 117.728 54.0268 117.468C54.467 117.207 54.7972 116.847 55.0173 116.387C55.2574 115.927 55.3775 115.397 55.3775 114.796V104.681H51.5355V100.689H63.0315V104.681H59.7898V115.306C59.7898 116.307 59.6197 117.217 59.2795 118.038C58.9393 118.858 58.4591 119.569 57.8388 120.169C57.2184 120.749 56.4881 121.2 55.6476 121.52C54.8272 121.84 53.9167 122 52.9162 122Z" fill="black"/>
<path d="M31.693 121.88C29.9921 121.88 28.4713 121.53 27.1306 120.829C25.8099 120.109 24.7694 119.128 24.009 117.888C23.2486 116.627 22.8684 115.206 22.8684 113.626V100.659H27.4008V113.355C27.4008 114.196 27.5909 114.956 27.9711 115.637C28.3513 116.297 28.8615 116.827 29.5019 117.227C30.1622 117.628 30.8926 117.828 31.693 117.828C32.5134 117.828 33.2538 117.628 33.9142 117.227C34.5945 116.827 35.1248 116.297 35.505 115.637C35.9052 114.956 36.1053 114.196 36.1053 113.355V100.659H40.4876V113.626C40.4876 115.206 40.1074 116.627 39.347 117.888C38.5866 119.128 37.5361 120.109 36.1954 120.829C34.8747 121.53 33.3739 121.88 31.693 121.88Z" fill="black"/>
<path d="M6.12319 121.7V104.741H0V100.689H16.9288V104.741H10.6255V121.7H6.12319Z" fill="black"/>
<path d="M71.5928 7.09461C71.5928 3.17637 74.7692 0 78.6874 0C82.6057 0 85.782 3.17637 85.782 7.09461V57.8484C85.782 63.2736 81.384 67.6717 75.9587 67.6717H73.23C72.3258 67.6717 71.5928 66.9387 71.5928 66.0344V7.09461Z" fill="black"/>
<path d="M87.1065 28.1848C81.6224 28.1848 77.1767 32.6306 77.1767 38.1146C77.1767 41.299 79.7581 43.8804 82.9424 43.8804L105.742 43.8804C113.622 43.8804 120.01 37.492 120.01 29.6117C120.01 28.8236 119.372 28.1848 118.584 28.1848L87.1065 28.1848Z" fill="black"/>
<path d="M73.5864 9.27759C79.1162 9.27759 83.5991 13.7604 83.5991 19.2902C83.5991 22.5011 80.9961 25.104 77.7853 25.104L52.1446 25.104C44.1985 25.104 37.757 18.6624 37.757 10.7164C37.757 9.92175 38.4011 9.27759 39.1957 9.27759L73.5864 9.27759Z" fill="black"/>
</svg>
